<svg xmlns="http://www.w3.org/2000/svg" version="1.1" xmlns:xlink="http://www.w3.org/1999/xlink" xmlns:svgjs="http://svgjs.com/svgjs" width="86" height="91"><svg version="1.1" id="SvgjsSvg1000" xmlns="http://www.w3.org/2000/svg" xmlns:xlink="http://www.w3.org/1999/xlink" x="0px" y="0px" viewBox="0 0 86 91" style="enable-background:new 0 0 86 91;" xml:space="preserve">
<style type="text/css">
	.st0{fill:#39B54A;}
	.st1{fill:#29ABE2;}
	.st2{fill:#FFFFFF;}
	.st3{fill:#C69C6D;}
</style>
<path class="st0" d="M45.03,56.21c0.63-0.57,1.29-1.11,1.89-1.7c4.54-4.4,10.44-6.61,17.6-6.73c3.05-0.05,6.11,0.1,9.15-0.05
	c2.56-0.12,3.11,0.75,3.07,2.58c-0.21,9.01-9.28,17.44-20.84,19.03c-2.98,0.41-6.06,0.43-9.09,0.46c-1.92,0.02-2.61,0.56-2.57,2.07
	c0.09,3.36,0.02,6.72,0.03,10.08c0,1.01,0.01,1.92-1.81,1.9c-1.78-0.01-1.85-0.92-1.85-1.92c0-7.45,0-14.9-0.01-22.34
	c-0.01-3.2-0.13-3.28-4.23-3.3C21.1,56.2,10.21,48.17,9.22,36.22c-0.08-0.95-0.27-2.03,1.61-2c4.7,0.09,9.47-0.16,14.09,0.39
	c11.45,1.37,19.16,8.68,19.34,17.81c0.02,1.2,0,2.39,0,3.59C44.51,56.08,44.77,56.15,45.03,56.21z"></path>
<path class="st1" d="M68.72,14.9c5.49,4.3,8.72,9.07,8.75,14.94c0.02,3.67-3.98,6.61-8.62,6.61c-4.86,0-9.12-3.14-8.97-6.88
	C60.13,23.82,63.36,19.12,68.72,14.9z"></path>
<path class="st1" d="M43.3,6c2.95,2.5,4.68,5.27,4.7,8.68c0.01,2.13-2.14,3.84-4.63,3.84c-2.61,0-4.9-1.82-4.81-4
	C38.69,11.18,40.43,8.45,43.3,6z"></path>
<path class="st1" d="M47.31,29c1.69,1.4,2.68,2.95,2.69,4.86c0.01,1.19-1.22,2.15-2.65,2.15c-1.49,0-2.8-1.02-2.75-2.24
	C44.67,31.9,45.67,30.37,47.31,29z"></path>
<circle class="st2" cx="48" cy="34" r="1"></circle>
<ellipse class="st2" cx="72.5" cy="29.5" rx="2.5" ry="3.5"></ellipse>
<ellipse class="st2" cx="46" cy="14.5" rx="1" ry="1.5"></ellipse>
<path class="st3" d="M75.81,48.09L75.81,48.09L75.81,48.09L75.81,48.09L75.81,48.09c-15.39,5-14.36,19-31.81,20
	c6.16,3,19.71-0.75,24.62-5C77.86,55.09,75.81,48.09,75.81,48.09z"></path>
<path class="st3" d="M11,35L11,35L11,35L11,35L11,35c15,5,14,19,31,20c-6,3-19.21-0.75-24-5C9,42,11,35,11,35z"></path>
</svg><style>@media (prefers-color-scheme: light) { :root { filter: none; } }
</style></svg>