<?xml version="1.0" encoding="utf-8"?>
<!-- Generator: Adobe Illustrator 27.8.1, SVG Export Plug-In . SVG Version: 6.00 Build 0)  -->
<svg version="1.1" id="Capa_1" xmlns="http://www.w3.org/2000/svg" xmlns:xlink="http://www.w3.org/1999/xlink" x="0px" y="0px"
	 viewBox="0 0 549.9 107" style="enable-background:new 0 0 549.9 107;" xml:space="preserve">
<style type="text/css">
	.st0{fill:#39B54A;}
	.st1{fill:#29ABE2;}
	.st2{fill:#FFFFFF;}
	.st3{fill:#C69C6D;}
	.st4{fill:#B8DA0B;}
	.st5{font-family:'Kalam-Bold';}
	.st6{font-size:66px;}
</style>
<path class="st0" d="M45,56.2c0.6-0.6,1.3-1.1,1.9-1.7c4.5-4.4,10.4-6.6,17.6-6.7c3.1,0,6.1,0.1,9.2,0c2.6-0.1,3.1,0.8,3.1,2.6
	c-0.2,9-9.3,17.4-20.8,19c-3,0.4-6.1,0.4-9.1,0.5c-1.9,0-2.6,0.6-2.6,2.1c0.1,3.4,0,6.7,0,10.1c0,1,0,1.9-1.8,1.9s-1.8-0.9-1.8-1.9
	c0-7.4,0-14.9,0-22.3c0-3.2-0.1-3.3-4.2-3.3c-15.3-0.1-26.2-8.1-27.1-20.1c-0.1-1-0.3-2,1.6-2c4.7,0.1,9.5-0.2,14.1,0.4
	c11.4,1.4,19.2,8.7,19.3,17.8c0,1.2,0,2.4,0,3.6C44.5,56.1,44.8,56.2,45,56.2z"/>
<path class="st1" d="M68.7,14.9c5.5,4.3,8.7,9.1,8.8,14.9c0,3.7-4,6.6-8.6,6.6c-4.9,0-9.1-3.1-9-6.9C60.1,23.8,63.4,19.1,68.7,14.9z
	"/>
<path class="st1" d="M43.3,6c3,2.5,4.7,5.3,4.7,8.7c0,2.1-2.1,3.8-4.6,3.8c-2.6,0-4.9-1.8-4.8-4C38.7,11.2,40.4,8.4,43.3,6z"/>
<path class="st1" d="M47.3,29c1.7,1.4,2.7,3,2.7,4.9c0,1.2-1.2,2.2-2.7,2.2s-2.8-1-2.8-2.2C44.7,31.9,45.7,30.4,47.3,29z"/>
<circle class="st2" cx="48" cy="34" r="1"/>
<ellipse class="st2" cx="72.5" cy="29.5" rx="2.5" ry="3.5"/>
<ellipse class="st2" cx="46" cy="14.5" rx="1" ry="1.5"/>
<path class="st3" d="M75.8,48.1L75.8,48.1L75.8,48.1L75.8,48.1L75.8,48.1c-15.4,5-14.4,19-31.8,20c6.2,3,19.7-0.8,24.6-5
	C77.9,55.1,75.8,48.1,75.8,48.1z"/>
<path class="st3" d="M11,35L11,35L11,35L11,35L11,35c15,5,14,19,31,20c-6,3-19.2-0.8-24-5C9,42,11,35,11,35z"/>
<text transform="matrix(1 0 0 1 90.8573 84)" class="st4 st5 st6">La VeguitaClick</text>
</svg>
